<svg width="32" height="32" viewBox="0 0 32 32" fill="none" xmlns="http://www.w3.org/2000/svg">
<g clip-path="url(#clip0_10137_239132)">
<path d="M17.3107 4.90425V9.15501M13.6806 9.15501V4.90425M28.4473 22.5803V18.7388C28.4473 15.456 25.7861 12.7948 22.5033 12.7948H20.7189C19.5069 12.7948 18.5244 11.8123 18.5244 10.6003V9.19585H12.461V10.6003C12.461 11.8123 11.4785 12.7948 10.2665 12.7948H6.60978M6.60978 18.4788H11.1642C11.8689 20.1753 13.5411 21.3687 15.4927 21.3687C17.4442 21.3687 19.1165 20.1754 19.8211 18.4788H20.9547C21.9535 18.4788 22.7633 19.2885 22.7633 20.2874V22.5803M22.158 22.5802H29.0549M28.1484 28.0153C28.1484 29.3761 27.0452 30.4794 25.6843 30.4794C24.3235 30.4794 23.2202 29.3762 23.2202 28.0153C23.2202 26.6544 25.6843 23.7319 25.6843 23.7319C25.6843 23.7319 28.1484 26.6544 28.1484 28.0153ZM11.1802 1.1875H19.8088V4.90429H11.1802V1.1875ZM2.44531 10.3383H6.6088V20.9353H2.44531V10.3383Z" stroke="#626680" stroke-width="1.4" stroke-miterlimit="10" stroke-linecap="round" stroke-linejoin="round"/>
</g>
<defs>
<clipPath id="clip0_10137_239132">
<rect width="31.1111" height="31.1111" fill="white" transform="translate(0.195312 0.277344)"/>
</clipPath>
</defs>
</svg>
